<svg width="34" height="34" viewBox="0 0 34 34" fill="none" xmlns="http://www.w3.org/2000/svg">
<path d="M30.125 28.5H3.875C2.83938 28.5 2 27.6606 2 26.625V7.875C2 6.83938 2.83938 6 3.875 6H30.125C31.1606 6 32 6.83938 32 7.875V26.625C32 27.6606 31.1606 28.5 30.125 28.5Z" fill="#EAEAEA"/>
<path d="M5.75 28.5H3.875C2.83938 28.5 2 27.6606 2 26.625V7.875C2 6.83938 2.83938 6 3.875 6C4.91062 6 5.75 6.83938 5.75 7.875V28.5Z" fill="#D54C3F"/>
<path d="M28.25 28.5H30.125C31.1606 28.5 32 27.6606 32 26.625V7.875C32 6.83938 31.1606 6 30.125 6C29.0894 6 28.25 6.83938 28.25 7.875V28.5Z" fill="#B63524"/>
<path d="M31.1987 9.4125C31.6831 9.07312 32 8.51125 32 7.875C32 6.83938 31.1606 6 30.125 6C29.7256 6 29.355 6.125 29.0513 6.3375L17.0012 15.1106L17 15.1112L16.9987 15.1106L4.94875 6.3375C4.645 6.125 4.27437 6 3.875 6C2.83938 6 2 6.83938 2 7.875C2 8.51125 2.31687 9.07312 2.80125 9.4125L2.75125 9.37562L17 19.75" fill="#DE5145"/>
<path d="M30.125 6C29.7256 6 29.355 6.125 29.0513 6.3375L17.0012 15.1106L17 15.1113L16.9987 15.1106L4.94875 6.3375C4.645 6.125 4.27437 6 3.875 6H30.125Z" fill="#EFEFEF"/>
<path d="M5.75061 12.3675L2.59061 9.23749L2.58936 9.23999C2.65561 9.30249 2.72623 9.35999 2.80123 9.41249L2.75123 9.37561L5.75123 11.56L5.75061 12.39" fill="#C64132"/>
<path d="M14.9175 21.3694L5.75 28.5L5.75063 12.2894L14.9156 21.3669" fill="#E3E3E3"/>
<path d="M14.9174 21.3694L16.9999 19.75L5.75049 11.56V12.2894L14.9155 21.3669L14.9174 21.3694Z" fill="url(#paint0_linear)"/>
<path d="M22.038 28.5H28.2499V11.5594L16.9999 19.75L14.9155 21.3669L22.038 28.5Z" fill="url(#paint1_linear)"/>
<defs>
<linearGradient id="paint0_linear" x1="5.75018" y1="16.4647" x2="16.9999" y2="16.4647" gradientUnits="userSpaceOnUse">
<stop stop-color="#C8C8C8"/>
<stop offset="1" stop-color="#CDCDCD"/>
</linearGradient>
<linearGradient id="paint1_linear" x1="14.9152" y1="20.0296" x2="28.2499" y2="20.0296" gradientUnits="userSpaceOnUse">
<stop stop-color="#D9D9D9"/>
<stop offset="1" stop-color="#E2E2E2"/>
</linearGradient>
</defs>
</svg>
