<svg width="34" height="34" viewBox="0 0 34 34" fill="none" xmlns="http://www.w3.org/2000/svg">
<path d="M17.2702 4C9.39066 4 3 10.3539 3 18.1908C3 24.4608 7.0884 29.78 12.7596 31.6567C13.4719 31.788 13.7026 31.3481 13.7026 30.9744V28.3325C9.73314 29.1911 8.90666 26.658 8.90666 26.658C8.25737 25.0178 7.32148 24.5814 7.32148 24.5814C6.02647 23.7004 7.42019 23.7193 7.42019 23.7193C8.85315 23.8187 9.60709 25.1822 9.60709 25.1822C10.8795 27.351 12.9451 26.7242 13.7597 26.3612C13.887 25.4447 14.2568 24.8179 14.6659 24.4643C11.4967 24.1037 8.16461 22.8868 8.16461 17.4505C8.16461 15.9002 8.72234 14.6348 9.63444 13.6415C9.48698 13.2832 8.99823 11.8392 9.77358 9.88564C9.77358 9.88564 10.9723 9.50485 13.6991 11.3402C14.8371 11.0256 16.0572 10.8684 17.2702 10.8624C18.4831 10.8684 19.7044 11.0256 20.8449 11.3402C23.5693 9.50485 24.7656 9.88564 24.7656 9.88564C25.5421 11.8404 25.0534 13.2843 24.9059 13.6415C25.8216 14.6348 26.3745 15.9014 26.3745 17.4505C26.3745 22.901 23.0365 24.1013 19.859 24.4525C20.3704 24.8924 20.8377 25.7557 20.8377 27.0802V30.9744C20.8377 31.3516 21.066 31.7951 21.7903 31.6555C27.4567 29.7764 31.5403 24.4584 31.5403 18.1908C31.5403 10.3539 25.1509 4 17.2702 4Z" fill="#24292E"/>
</svg>
