<svg width="34" height="34" viewBox="0 0 34 34" fill="none" xmlns="http://www.w3.org/2000/svg">
<path d="M12.6674 17.5C12.6674 14.8307 14.8307 12.6663 17.5 12.6663C20.1693 12.6663 22.3337 14.8307 22.3337 17.5C22.3337 20.1693 20.1693 22.3337 17.5 22.3337C14.8307 22.3337 12.6674 20.1693 12.6674 17.5ZM10.0544 17.5C10.0544 21.6122 13.3878 24.9456 17.5 24.9456C21.6122 24.9456 24.9456 21.6122 24.9456 17.5C24.9456 13.3878 21.6122 10.0544 17.5 10.0544C13.3878 10.0544 10.0544 13.3878 10.0544 17.5ZM23.5003 9.7592C23.5002 10.1033 23.6021 10.4398 23.7932 10.726C23.9843 11.0122 24.2559 11.2354 24.5738 11.3672C24.8917 11.499 25.2416 11.5336 25.5791 11.4666C25.9167 11.3996 26.2268 11.234 26.4702 10.9908C26.7136 10.7475 26.8795 10.4375 26.9468 10.1C27.014 9.76254 26.9797 9.41267 26.8481 9.09467C26.7166 8.77668 26.4937 8.50484 26.2076 8.31353C25.9215 8.12222 25.5852 8.02004 25.241 8.0199H25.2403C24.779 8.02011 24.3367 8.20341 24.0104 8.52953C23.6842 8.85564 23.5007 9.29791 23.5003 9.7592V9.7592ZM11.642 29.3027C10.2283 29.2383 9.45992 29.0028 8.94929 28.8039C8.27232 28.5403 7.78929 28.2264 7.28144 27.7193C6.7736 27.2121 6.45924 26.7295 6.19684 26.0526C5.99779 25.5422 5.76231 24.7735 5.69804 23.3599C5.62775 21.8314 5.61371 21.3723 5.61371 17.5001C5.61371 13.6279 5.62891 13.1701 5.69804 11.6404C5.76242 10.2267 5.99964 9.45958 6.19684 8.94767C6.4604 8.27069 6.77429 7.78767 7.28144 7.27982C7.7886 6.77197 8.27116 6.45761 8.94929 6.19522C9.45969 5.99616 10.2283 5.76068 11.642 5.69642C13.1704 5.62612 13.6295 5.61209 17.5 5.61209C21.3705 5.61209 21.83 5.62728 23.3597 5.69642C24.7734 5.7608 25.5405 5.99802 26.0524 6.19522C26.7294 6.45761 27.2124 6.77267 27.7203 7.27982C28.2281 7.78697 28.5413 8.27069 28.8049 8.94767C29.004 9.45807 29.2394 10.2267 29.3037 11.6404C29.374 13.1701 29.388 13.6279 29.388 17.5001C29.388 21.3723 29.374 21.8302 29.3037 23.3599C29.2393 24.7735 29.0027 25.5419 28.8049 26.0526C28.5413 26.7295 28.2274 27.2126 27.7203 27.7193C27.2131 28.2259 26.7294 28.5403 26.0524 28.8039C25.542 29.0029 24.7734 29.2384 23.3597 29.3027C21.8313 29.3729 21.3722 29.387 17.5 29.387C13.6278 29.387 13.17 29.3729 11.642 29.3027V29.3027ZM11.5219 3.08781C9.97833 3.15811 8.92354 3.40287 8.00238 3.76131C7.0484 4.13146 6.24081 4.62806 5.4338 5.4338C4.62678 6.23953 4.13146 7.0484 3.76131 8.00238C3.40287 8.92412 3.15811 9.97833 3.08781 11.5219C3.01636 13.068 3 13.5623 3 17.5C3 21.4377 3.01636 21.932 3.08781 23.4781C3.15811 25.0218 3.40287 26.0759 3.76131 26.9976C4.13146 27.951 4.6269 28.7608 5.4338 29.5662C6.24069 30.3716 7.0484 30.8675 8.00238 31.2387C8.92528 31.5971 9.97833 31.8419 11.5219 31.9122C13.0688 31.9825 13.5623 32 17.5 32C21.4377 32 21.932 31.9836 23.4781 31.9122C25.0218 31.8419 26.0759 31.5971 26.9976 31.2387C27.951 30.8675 28.7592 30.3719 29.5662 29.5662C30.3732 28.7605 30.8675 27.951 31.2387 26.9976C31.5971 26.0759 31.843 25.0217 31.9122 23.4781C31.9825 21.9309 31.9988 21.4377 31.9988 17.5C31.9988 13.5623 31.9825 13.068 31.9122 11.5219C31.8419 9.97821 31.5971 8.92354 31.2387 8.00238C30.8675 7.04898 30.3719 6.24081 29.5662 5.4338C28.7605 4.62678 27.951 4.13146 26.9988 3.76131C26.0759 3.40287 25.0217 3.15695 23.4792 3.08781C21.9332 3.01752 21.4389 3 17.5012 3C13.5634 3 13.0688 3.01636 11.5219 3.08781Z" fill="url(#paint0_radial)"/>
<path d="M12.6674 17.5C12.6674 14.8307 14.8307 12.6663 17.5 12.6663C20.1693 12.6663 22.3337 14.8307 22.3337 17.5C22.3337 20.1693 20.1693 22.3337 17.5 22.3337C14.8307 22.3337 12.6674 20.1693 12.6674 17.5ZM10.0544 17.5C10.0544 21.6122 13.3878 24.9456 17.5 24.9456C21.6122 24.9456 24.9456 21.6122 24.9456 17.5C24.9456 13.3878 21.6122 10.0544 17.5 10.0544C13.3878 10.0544 10.0544 13.3878 10.0544 17.5ZM23.5003 9.7592C23.5002 10.1033 23.6021 10.4398 23.7932 10.726C23.9843 11.0122 24.2559 11.2354 24.5738 11.3672C24.8917 11.499 25.2416 11.5336 25.5791 11.4666C25.9167 11.3996 26.2268 11.234 26.4702 10.9908C26.7136 10.7475 26.8795 10.4375 26.9468 10.1C27.014 9.76254 26.9797 9.41267 26.8481 9.09467C26.7166 8.77668 26.4937 8.50484 26.2076 8.31353C25.9215 8.12222 25.5852 8.02004 25.241 8.0199H25.2403C24.779 8.02011 24.3367 8.20341 24.0104 8.52953C23.6842 8.85564 23.5007 9.29791 23.5003 9.7592V9.7592ZM11.642 29.3027C10.2283 29.2383 9.45992 29.0028 8.94929 28.8039C8.27232 28.5403 7.78929 28.2264 7.28144 27.7193C6.7736 27.2121 6.45924 26.7295 6.19684 26.0526C5.99779 25.5422 5.76231 24.7735 5.69804 23.3599C5.62775 21.8314 5.61371 21.3723 5.61371 17.5001C5.61371 13.6279 5.62891 13.1701 5.69804 11.6404C5.76242 10.2267 5.99964 9.45958 6.19684 8.94767C6.4604 8.27069 6.77429 7.78767 7.28144 7.27982C7.7886 6.77197 8.27116 6.45761 8.94929 6.19522C9.45969 5.99616 10.2283 5.76068 11.642 5.69642C13.1704 5.62612 13.6295 5.61209 17.5 5.61209C21.3705 5.61209 21.83 5.62728 23.3597 5.69642C24.7734 5.7608 25.5405 5.99802 26.0524 6.19522C26.7294 6.45761 27.2124 6.77267 27.7203 7.27982C28.2281 7.78697 28.5413 8.27069 28.8049 8.94767C29.004 9.45807 29.2394 10.2267 29.3037 11.6404C29.374 13.1701 29.388 13.6279 29.388 17.5001C29.388 21.3723 29.374 21.8302 29.3037 23.3599C29.2393 24.7735 29.0027 25.5419 28.8049 26.0526C28.5413 26.7295 28.2274 27.2126 27.7203 27.7193C27.2131 28.2259 26.7294 28.5403 26.0524 28.8039C25.542 29.0029 24.7734 29.2384 23.3597 29.3027C21.8313 29.3729 21.3722 29.387 17.5 29.387C13.6278 29.387 13.17 29.3729 11.642 29.3027V29.3027ZM11.5219 3.08781C9.97833 3.15811 8.92354 3.40287 8.00238 3.76131C7.0484 4.13146 6.24081 4.62806 5.4338 5.4338C4.62678 6.23953 4.13146 7.0484 3.76131 8.00238C3.40287 8.92412 3.15811 9.97833 3.08781 11.5219C3.01636 13.068 3 13.5623 3 17.5C3 21.4377 3.01636 21.932 3.08781 23.4781C3.15811 25.0218 3.40287 26.0759 3.76131 26.9976C4.13146 27.951 4.6269 28.7608 5.4338 29.5662C6.24069 30.3716 7.0484 30.8675 8.00238 31.2387C8.92528 31.5971 9.97833 31.8419 11.5219 31.9122C13.0688 31.9825 13.5623 32 17.5 32C21.4377 32 21.932 31.9836 23.4781 31.9122C25.0218 31.8419 26.0759 31.5971 26.9976 31.2387C27.951 30.8675 28.7592 30.3719 29.5662 29.5662C30.3732 28.7605 30.8675 27.951 31.2387 26.9976C31.5971 26.0759 31.843 25.0217 31.9122 23.4781C31.9825 21.9309 31.9988 21.4377 31.9988 17.5C31.9988 13.5623 31.9825 13.068 31.9122 11.5219C31.8419 9.97821 31.5971 8.92354 31.2387 8.00238C30.8675 7.04898 30.3719 6.24081 29.5662 5.4338C28.7605 4.62678 27.951 4.13146 26.9988 3.76131C26.0759 3.40287 25.0217 3.15695 23.4792 3.08781C21.9332 3.01752 21.4389 3 17.5012 3C13.5634 3 13.0688 3.01636 11.5219 3.08781Z" fill="url(#paint1_radial)"/>
<defs>
<radialGradient id="paint0_radial" cx="0" cy="0" r="1" gradientUnits="userSpaceOnUse" gradientTransform="translate(6.85282 32.137) scale(37.8571)">
<stop offset="0.09" stop-color="#FA8F21"/>
<stop offset="0.78" stop-color="#D82D7E"/>
</radialGradient>
<radialGradient id="paint1_radial" cx="0" cy="0" r="1" gradientUnits="userSpaceOnUse" gradientTransform="translate(20.5872 33.4362) scale(29.8366)">
<stop offset="0.64" stop-color="#8C3AAA" stop-opacity="0"/>
<stop offset="1" stop-color="#8C3AAA"/>
</radialGradient>
</defs>
</svg>
