<svg width="34" height="34" viewBox="0 0 34 34" fill="none" xmlns="http://www.w3.org/2000/svg">
<path d="M25.0867 3H8.07545C4.72059 3 2 5.70546 2 9.04167V25.9583C2 29.2945 4.72059 32 8.07545 32H25.0867C28.4428 32 31.1622 29.2945 31.1622 25.9583V9.04167C31.1622 5.70546 28.4428 3 25.0867 3ZM11.7207 25.9583H8.07545V12.6667H11.7207V25.9583ZM9.89809 11.1345C8.72431 11.1345 7.77168 10.1799 7.77168 9.003C7.77168 7.82608 8.72431 6.8715 9.89809 6.8715C11.0719 6.8715 12.0245 7.82608 12.0245 9.003C12.0245 10.1799 11.0731 11.1345 9.89809 11.1345ZM26.3018 25.9583H22.6565V19.1868C22.6565 15.1172 17.7962 15.4253 17.7962 19.1868V25.9583H14.1509V12.6667H17.7962V14.7994C19.4925 11.6746 26.3018 11.4438 26.3018 17.7912V25.9583Z" fill="#0077B5"/>
</svg>
