<svg width="34" height="34" viewBox="0 0 34 34" fill="none" xmlns="http://www.w3.org/2000/svg">
<path d="M33.6223 7.12109C32.4221 7.65095 31.1322 8.0078 29.7783 8.16866C31.1607 7.34547 32.2223 6.04107 32.7211 4.48661C31.4285 5.24897 29.9958 5.80317 28.4707 6.1019C27.2515 4.80832 25.5102 4 23.5855 4C19.2644 4 16.0892 8.00915 17.0651 12.1711C11.5044 11.894 6.57298 9.24461 3.27133 5.21789C1.51788 8.20921 2.36198 12.1224 5.34149 14.104C4.24592 14.0688 3.21288 13.7701 2.31169 13.2713C2.23829 16.3546 4.46069 19.2391 7.67942 19.8812C6.73745 20.1353 5.70577 20.1948 4.65642 19.9947C5.50732 22.6386 7.97846 24.5621 10.909 24.6162C8.09536 26.81 4.5504 27.79 1 27.3737C3.96184 29.262 7.48097 30.3636 11.2597 30.3636C23.6861 30.3636 30.7067 19.9271 30.2826 10.5666C31.5902 9.62714 32.7252 8.45522 33.6223 7.12109Z" fill="#08A0E9"/>
</svg>
