<svg width="35" height="34" viewBox="0 0 35 34" fill="none" xmlns="http://www.w3.org/2000/svg">
<path d="M13.6343 21.9481L22.4795 16.8636L13.6343 11.7792V21.9481ZM33.3358 8.67773C33.5573 9.47429 33.7107 10.542 33.813 11.8979C33.9323 13.2537 33.9834 14.4231 33.9834 15.44L34.0857 16.8636C34.0857 20.5753 33.813 23.3039 33.3358 25.0495C32.9097 26.5749 31.9212 27.5579 30.3874 27.9816C29.5864 28.2019 28.1207 28.3544 25.871 28.4561C23.6555 28.5747 21.6274 28.6256 19.7526 28.6256L17.0428 28.7273C9.90189 28.7273 5.45371 28.4561 3.6983 27.9816C2.16444 27.5579 1.17596 26.5749 0.749885 25.0495C0.528328 24.253 0.374943 23.1853 0.272685 21.8294C0.153386 20.4736 0.102257 19.3042 0.102257 18.2873L0 16.8636C0 13.152 0.272685 10.4234 0.749885 8.67773C1.17596 7.1524 2.16444 6.16942 3.6983 5.74571C4.49931 5.52539 5.96499 5.37286 8.21465 5.27117C10.4302 5.15253 12.4583 5.10169 14.333 5.10169L17.0428 5C24.1838 5 28.632 5.27117 30.3874 5.74571C31.9212 6.16942 32.9097 7.1524 33.3358 8.67773Z" fill="#FF0000"/>
</svg>
