<svg width="892" height="844" viewBox="0 0 892 844" fill="none" xmlns="http://www.w3.org/2000/svg">
<g filter="url(#filter0_d)">
<path d="M241.766 50.5583C241.768 50.5596 241.769 50.561 241.772 50.5596C241.846 50.5416 243.026 50.2375 244.686 49.8084C252.361 47.8296 259.466 44.0846 265.435 38.8718C265.435 38.8718 265.437 38.8718 265.437 38.8704C267.697 36.8972 270.186 35.199 272.849 33.8132C274.797 32.7995 277.202 31.5484 279.473 30.3667C284.465 27.77 289.753 25.7885 295.224 24.4679C306.808 21.6713 327.721 16.6224 338.64 13.9854C343.34 12.8509 348.146 12.2108 352.978 12.0747C353.514 12.0594 354.068 12.0428 354.635 12.0275C367.805 11.6567 380.81 15.0408 392.128 21.7866C395.112 23.564 398.025 25.2997 400.44 26.7397C404.479 29.1461 408.261 31.9566 411.731 35.1268C413.775 36.9944 415.99 39.0176 417.508 40.4048C418.671 41.4685 419.189 43.0654 418.87 44.6109V44.6123C418.784 45.0261 418.457 45.3482 418.042 45.426C417.627 45.5052 417.206 45.3246 416.974 44.9705C416.931 44.9039 416.887 44.8359 416.843 44.7678C411.941 37.2513 405.455 30.8985 397.84 26.1537C395.093 24.4416 392.315 22.7114 390.094 21.3269C389.009 20.6507 387.668 20.5257 386.477 20.9895C385.287 21.4533 384.384 22.4531 384.043 23.6848V23.6861C383.482 25.7093 384.19 27.8714 385.839 29.1697C386.017 29.3114 386.198 29.453 386.378 29.596C388.444 31.222 389.633 33.7202 389.593 36.3502C389.577 37.3277 389.562 38.3289 389.549 39.1731C389.543 39.6647 389.77 40.1313 390.165 40.4284C390.558 40.7242 391.069 40.8145 391.539 40.6715C391.663 40.634 391.785 40.5965 391.907 40.559C392.277 40.4465 392.678 40.5215 392.982 40.7603C393.286 41.0005 393.454 41.3727 393.432 41.7587C393.432 41.7601 393.432 41.7601 393.432 41.7601C393.323 43.6306 393.725 45.4968 394.593 47.1576C395.453 48.8044 396.534 50.8707 397.189 52.126C397.545 52.8078 397.447 53.6382 396.943 54.2186C396.86 54.313 396.778 54.4074 396.699 54.4991C396.345 54.9059 395.778 55.0601 395.267 54.8879C394.838 54.7449 394.309 54.5671 393.832 54.406C393.796 54.3935 393.757 54.413 393.743 54.4477C393.728 54.4838 393.744 54.5241 393.779 54.5407C393.782 54.5421 393.784 54.5435 393.787 54.5435C395.828 55.4836 397.168 57.4887 397.259 59.7327C397.304 60.888 397.354 62.1697 397.402 63.3416C397.502 65.8675 398.494 68.2767 400.201 70.1402L400.202 70.1416C401.913 72.0093 404.218 73.227 406.724 73.5867C407.781 73.738 408.863 73.8936 409.693 74.013C409.848 74.0352 409.966 74.1616 409.979 74.3171C409.99 74.4726 409.893 74.6157 409.744 74.6615C409.568 74.7156 409.39 74.7698 409.224 74.8212C409.025 74.8823 408.872 75.0433 408.824 75.2461C408.774 75.4488 408.835 75.6626 408.983 75.8085L408.985 75.8099C410.918 77.7136 413.289 79.1105 415.891 79.8784C418.349 80.6033 421.422 81.5086 423.482 82.1168C424.922 82.5417 426.48 82.2599 427.681 81.3573C427.859 81.224 428.038 81.0907 428.21 80.9615C429.059 80.3242 430.213 80.2728 431.114 80.8338C431.114 80.8352 431.114 80.8352 431.115 80.8352C433.419 82.2696 436.117 82.9389 438.823 82.7487C441.134 82.5862 444.041 82.3821 446.559 82.2057C450.348 81.9391 454.108 81.3629 457.803 80.4811C461.13 79.6882 465.204 78.7162 467.804 78.0955C469.537 77.6817 471.216 77.0665 472.806 76.2625C472.984 76.1723 473.168 76.0792 473.361 75.9806C473.677 75.8223 474.061 75.9404 474.232 76.25C474.403 76.5583 474.299 76.9485 473.996 77.1304C473.988 77.1359 473.979 77.1401 473.971 77.1457C470.883 79.0036 467.556 80.4325 464.082 81.3934C461.203 82.1904 457.79 83.1361 455.638 83.7318C455.18 83.8581 454.819 84.2122 454.684 84.6677C454.548 85.1232 454.656 85.6161 454.97 85.973C454.97 85.973 454.97 85.9744 454.972 85.9744C455.934 87.07 456.498 88.4586 456.57 89.9152C456.648 91.4815 456.737 93.2895 456.737 93.2895C456.737 93.2895 461.739 94.0324 464.536 94.4476C465.681 94.617 466.834 94.1935 467.598 93.3242C467.599 93.3228 467.6 93.32 467.603 93.3187C467.691 93.2187 467.838 93.1978 467.95 93.2687C468.063 93.3409 468.106 93.4839 468.052 93.6047C467.245 95.4307 465.963 98.3329 465.361 99.6979C465.172 100.126 465.343 100.627 465.752 100.849C465.856 100.906 465.962 100.963 466.058 101.014C466.16 101.07 466.284 101.077 466.392 101.03C466.499 100.984 466.581 100.891 466.612 100.777C466.828 99.9811 467.282 98.3162 467.65 96.9665C468.014 95.6306 468.724 94.4142 469.705 93.4408C470.215 92.9354 470.816 92.3397 471.448 91.7134C474.817 88.3725 478.89 85.8286 483.371 84.2692H483.373C488.56 82.464 492.936 78.8717 495.715 74.1352C495.978 73.6867 496.231 73.2562 496.465 72.8563C497.375 71.308 498.998 70.3179 500.791 70.218C501.699 70.168 502.703 70.111 503.606 70.061C505.466 69.9583 507.333 70.0499 509.173 70.3374C520.342 72.0828 561.908 78.5731 570.98 79.9909C572.149 80.1728 573.323 80.3256 574.502 80.4492C583.182 81.3517 621.472 85.3384 636.175 86.87C640.02 87.2699 643.891 87.3491 647.75 87.1047C667.012 85.8855 728.809 81.9752 749.097 80.6908C753.2 80.4311 756.935 78.2427 759.169 74.792C759.169 74.7906 759.169 74.7906 759.169 74.7906C759.437 74.3782 759.869 74.1005 760.355 74.0325C760.513 74.0102 760.681 73.9852 760.851 73.9616C761.693 73.8422 762.553 73.9089 763.366 74.1588C765.602 74.8448 770.313 76.2903 772.775 77.0457C773.171 77.1679 773.495 77.4539 773.663 77.833C773.831 78.2121 773.826 78.644 773.65 79.0189C773.65 79.0203 773.649 79.0203 773.649 79.0217C773.463 79.416 773.442 79.8701 773.592 80.2811C773.74 80.6922 774.047 81.0268 774.443 81.2101C775.112 81.5225 775.911 81.8933 776.627 82.2266C777.728 82.7403 778.243 84.0192 777.804 85.1537C777.749 85.2967 777.693 85.4411 777.638 85.5814C777.287 86.4895 777.636 87.5199 778.47 88.0267C778.771 88.21 779.093 88.4044 779.405 88.5946C780.5 89.2598 781.862 89.3084 783.002 88.7224H783.003C784.608 87.8976 786.565 88.2239 787.814 89.5264C788.575 90.3207 789.453 91.2344 790.28 92.0967C792.269 94.1671 794.881 95.5307 797.716 95.9778H797.717C800.536 96.4208 803.112 97.8344 805 99.9742C805.647 100.707 806.363 101.517 807.103 102.354C812.122 108.041 815.795 114.786 817.848 122.088C818.118 123.044 818.228 124.04 818.172 125.031C818.144 125.523 818.112 126.076 818.085 126.594C818.015 127.828 817.565 129.01 816.796 129.979C816.47 130.39 816.111 130.841 815.771 131.269C814.896 132.37 814.734 133.878 815.352 135.142C815.352 135.142 815.352 135.143 815.353 135.143C816.581 137.652 817.286 140.385 817.428 143.175C817.567 145.953 817.741 149.411 817.837 151.311C817.882 152.196 818.35 153.007 819.094 153.491C819.094 153.491 819.094 153.492 819.095 153.492C819.833 153.971 820.27 154.799 820.249 155.679C820.202 157.658 820.116 161.277 820.06 163.659C820.024 165.174 820.496 166.656 821.403 167.87C822.339 169.123 822.989 170.566 823.308 172.098C824.42 177.445 827.174 190.672 828.573 197.395C829.136 200.103 829.862 202.775 830.744 205.396C832.691 211.178 836.356 222.069 838.807 229.352C840.448 234.229 842.635 238.903 845.325 243.288C846.3 244.878 847.323 246.547 848.239 248.041C850.132 251.127 850.521 254.905 849.297 258.312C849.297 258.313 849.297 258.313 849.297 258.313C848.053 261.775 848.066 265.561 849.332 269.015C850.58 272.421 852.122 276.624 852.984 278.977C853.395 280.097 853.167 281.353 852.39 282.258C852.39 282.259 852.39 282.259 852.388 282.259C851.576 283.206 851.164 284.431 851.237 285.677C851.358 287.726 851.562 291.187 851.79 295.032C852.541 307.736 847.294 320.055 837.616 328.318C837.614 328.318 837.614 328.318 837.614 328.318C836.402 329.352 834.862 329.924 833.268 329.933C832.763 329.935 832.218 329.938 831.673 329.941C828.979 329.955 826.328 330.617 823.945 331.874C823.673 332.017 823.393 332.165 823.107 332.317C816.785 335.649 811.164 340.171 806.554 345.633C806.404 345.811 806.257 345.985 806.115 346.154C804.603 347.945 803.248 349.864 802.066 351.889C798.674 357.7 791.425 370.118 789.328 373.709C789.177 373.97 789.136 374.282 789.218 374.57C789.299 374.861 789.495 375.106 789.76 375.249C789.897 375.324 790.036 375.399 790.165 375.469C790.543 375.673 790.782 376.064 790.79 376.495V376.496C790.864 380.08 793.38 383.148 796.879 383.923C799.582 384.521 802.619 385.192 804.638 385.639C806.104 385.962 807.387 386.846 808.212 388.101C808.213 388.101 808.213 388.102 808.213 388.102C808.978 389.263 810.345 389.878 811.721 389.681C812.473 389.573 813.304 389.453 814.029 389.351C814.445 389.291 814.862 389.448 815.135 389.768C815.407 390.088 815.496 390.525 815.37 390.927C815.37 390.927 815.37 390.927 815.37 390.928C815.014 392.061 815.28 393.297 816.067 394.187C816.817 395.034 817.769 396.109 818.544 396.984C819.419 397.972 820.763 398.406 822.052 398.114C823.376 397.814 824.759 398.256 825.665 399.269C826.321 400.004 827.081 400.855 827.681 401.526C828.34 402.264 828.583 403.286 828.325 404.243L828.324 404.245C828.053 405.247 828.128 406.312 828.535 407.269C828.687 407.627 828.862 408.035 829.047 408.471C830.731 412.419 829.975 416.985 827.107 420.179C827.106 420.18 827.106 420.18 827.106 420.18C826.786 420.536 826.76 421.065 827.042 421.449C827.211 421.68 827.402 421.94 827.577 422.18C827.9 422.621 827.818 423.239 827.389 423.581C827.347 423.614 827.304 423.647 827.261 423.682C826.181 424.544 825.938 426.089 826.704 427.24C826.704 427.241 826.706 427.241 826.706 427.243C827.25 428.06 827.429 429.067 827.2 430.021C827.154 430.217 827.109 430.41 827.067 430.585C827.021 430.775 826.899 430.939 826.729 431.038C826.56 431.136 826.359 431.161 826.17 431.107C825.951 431.044 825.71 430.975 825.496 430.914C825.342 430.87 825.174 430.897 825.042 430.989C824.909 431.081 824.826 431.226 824.812 431.387C824.762 432.022 824.684 433.009 824.615 433.872C824.525 435.009 824.787 436.148 825.366 437.131C825.366 437.131 825.366 437.131 825.367 437.131C826.759 439.493 826.396 442.495 824.481 444.457C822.96 446.016 821.21 447.81 819.951 449.1C818.948 450.128 818.783 451.708 819.549 452.922C819.697 453.154 819.842 453.387 819.983 453.608C820.548 454.501 820.727 455.584 820.478 456.611V456.613C819.552 460.465 819.391 464.462 820.008 468.377C820.405 470.897 820.841 473.662 821.121 475.445C821.302 476.59 822.171 477.506 823.304 477.746C823.305 477.746 823.305 477.747 823.307 477.747C824.433 477.986 825.317 478.861 825.567 479.984C825.612 480.181 825.656 480.383 825.699 480.58C825.956 481.73 826.814 482.652 827.944 482.988C828.015 483.01 828.088 483.031 828.158 483.052C829.064 483.321 829.618 484.233 829.441 485.161C829.359 485.59 829.269 486.065 829.179 486.537C828.848 488.274 829.502 490.051 830.878 491.16C830.88 491.16 830.88 491.16 830.88 491.16C832.257 492.269 832.889 494.06 832.513 495.788C832.492 495.881 832.472 495.974 832.452 496.068C831.91 498.557 830.776 500.878 829.146 502.835C829.111 502.878 829.075 502.921 829.039 502.964C828.131 504.054 827.724 505.476 827.917 506.881C828 507.487 828.087 508.13 828.165 508.691C828.287 509.581 829.047 510.243 829.945 510.243C830.417 510.243 830.931 510.243 831.387 510.243C832.178 510.243 832.882 510.746 833.139 511.494C833.203 511.682 833.274 511.886 833.347 512.102C835.286 517.754 838.85 522.707 843.593 526.34C843.593 526.34 843.593 526.34 843.595 526.341C845.95 528.145 847.131 531.09 846.676 534.023C846.67 534.057 846.665 534.094 846.659 534.128C846.466 535.381 846.96 536.639 847.955 537.423C848.141 537.571 848.334 537.722 848.525 537.873C849.968 539.012 851.007 540.584 851.486 542.357C851.888 543.847 852.362 545.598 852.647 546.648C852.787 547.169 852.491 547.709 851.974 547.87C851.855 547.906 851.737 547.943 851.627 547.978C851.52 548.011 851.44 548.102 851.422 548.213C851.402 548.323 851.448 548.435 851.538 548.502C851.991 548.839 852.698 549.365 853.334 549.837C854.245 550.515 854.883 551.497 855.135 552.605C855.654 554.903 856.744 557.035 858.303 558.801C858.362 558.866 858.421 558.934 858.481 559.001C861.419 562.329 865.106 564.916 869.235 566.548H869.237C869.602 566.692 869.873 567.003 869.966 567.385C870.059 567.766 869.96 568.167 869.703 568.463C869.516 568.678 869.319 568.904 869.12 569.132C868.054 570.355 866.499 571.04 864.875 570.998C863.74 570.969 862.407 570.934 861.273 570.907C859.663 570.865 858.108 571.501 856.987 572.662C855.873 573.814 855.322 575.399 855.48 576.994C855.49 577.097 855.5 577.2 855.511 577.302C855.653 578.738 856.665 579.938 858.056 580.317C858.063 580.32 858.07 580.321 858.076 580.323C859.436 580.695 860.336 581.985 860.215 583.39C860.19 583.677 860.164 583.97 860.14 584.257C860.028 585.542 860.969 586.68 862.252 586.812C862.438 586.831 862.623 586.85 862.804 586.868C863.259 586.916 863.676 587.143 863.96 587.502C864.245 587.861 864.371 588.318 864.313 588.772C864.246 589.296 864.171 589.876 864.102 590.422C863.923 591.816 864.157 593.231 864.777 594.492C864.882 594.707 864.992 594.929 865.102 595.153C866.106 597.195 866.572 599.459 866.457 601.729V601.731C866.242 605.995 865.485 610.215 864.206 614.289C863.467 616.64 862.663 619.201 862.082 621.053C861.536 622.793 860.733 624.443 859.702 625.946C859.702 625.946 859.702 625.946 859.7 625.946C858.721 627.375 857.183 628.324 855.467 628.558C851.494 629.1 844.036 630.118 839.378 630.754C836.81 631.104 834.589 632.72 833.464 635.056C832.26 637.555 830.581 639.796 828.521 641.653C825.631 644.258 821.568 647.921 820.094 649.25C819.72 649.587 819.343 649.92 818.961 650.25C816.817 652.099 809.095 658.76 803.478 663.605C799.366 667.153 795.685 671.172 792.508 675.578C781.151 691.334 752.921 730.499 745.199 741.211C744.06 742.791 744.246 744.964 745.636 746.326C745.638 746.328 745.638 746.328 745.638 746.328C747.223 747.883 748.341 749.851 748.863 752.01C749.178 753.317 749.559 754.89 749.948 756.499C751.445 762.688 752.082 769.055 751.842 775.419C751.789 776.841 751.74 778.143 751.704 779.086C751.668 780.064 751.275 780.994 750.603 781.702C750.538 781.77 750.474 781.838 750.41 781.905C750.193 782.134 750.085 782.445 750.113 782.759C750.142 783.073 750.305 783.36 750.56 783.545C750.56 783.545 750.56 783.546 750.561 783.546C751.514 784.241 751.763 785.557 751.127 786.551C750.531 787.482 749.832 788.572 749.385 789.272C749.108 789.705 749.122 790.264 749.421 790.684C749.421 790.684 749.421 790.684 749.423 790.685C749.548 790.86 749.738 790.977 749.95 791.01C750.163 791.043 750.38 790.989 750.553 790.86C750.874 790.62 751.272 790.321 751.654 790.035C751.811 789.917 752.029 789.92 752.183 790.044C752.336 790.167 752.387 790.378 752.307 790.559C752.242 790.702 752.176 790.846 752.114 790.985C752.001 791.236 752.021 791.528 752.168 791.761C752.314 791.995 752.568 792.139 752.843 792.146C752.923 792.149 753.004 792.15 753.087 792.153C754.798 792.197 756.361 793.129 757.215 794.612C757.256 794.681 757.297 794.752 757.338 794.823C758.58 796.98 760.519 798.647 762.836 799.553C762.838 799.553 762.837 799.554 762.837 799.554C763.218 799.703 763.516 800.007 763.658 800.39C763.798 800.775 763.769 801.2 763.575 801.559C763.49 801.716 763.404 801.877 763.316 802.04C762.644 803.289 762.475 804.75 762.844 806.121C763.161 807.296 763.55 808.735 763.848 809.845C763.972 810.299 763.898 810.785 763.647 811.184C763.396 811.581 762.99 811.856 762.528 811.942C762.526 811.942 762.526 811.942 762.525 811.942C761.392 812.151 760.228 811.788 759.415 810.971C758.694 810.248 757.771 809.32 756.9 808.445C755.216 806.754 752.772 806.061 750.45 806.616C750.45 806.616 750.45 806.616 750.449 806.616C748.109 807.177 745.643 806.533 743.876 804.9C743.398 804.461 742.898 803.998 742.404 803.542C740.085 801.401 736.893 800.48 733.791 801.058V801.059C732.081 801.377 730.322 801.311 728.642 800.862C728.403 800.798 728.159 800.733 727.914 800.668C725.815 800.11 723.952 798.889 722.6 797.188C722.185 796.667 721.76 796.134 721.38 795.655C720.569 794.636 719.23 794.198 717.975 794.543C717.974 794.543 717.974 794.543 717.974 794.543C716.613 794.916 715.175 794.908 713.818 794.519C712.87 794.247 711.735 793.922 710.724 793.632C709.125 793.172 707.996 791.745 707.919 790.083C707.919 790.083 707.919 790.082 707.919 790.081C707.907 789.816 707.768 789.572 707.545 789.427C707.322 789.281 707.043 789.252 706.795 789.348C706.674 789.394 706.55 789.442 706.425 789.49C705.483 789.853 704.433 789.821 703.514 789.399C701.839 788.63 699.009 787.329 696.707 786.272C694.392 785.209 692.748 783.074 692.312 780.565C692.312 780.564 692.312 780.564 692.312 780.564C691.847 777.889 690.817 775.345 689.291 773.101C688.536 771.992 687.721 770.794 687.053 769.81C686.16 768.5 684.707 767.676 683.124 767.584C683.123 767.584 683.123 767.584 683.123 767.584C681.514 767.49 679.995 766.808 678.856 765.667C678.383 765.191 677.866 764.674 677.379 764.184C676.144 762.948 674.28 762.593 672.679 763.29C672.677 763.29 672.677 763.29 672.676 763.29C672.001 763.584 671.512 764.189 671.368 764.911C671.34 765.047 671.312 765.186 671.284 765.327C671.23 765.602 671.018 765.821 670.743 765.883C670.468 765.947 670.182 765.843 670.013 765.62C669.303 764.686 668.309 763.38 667.41 762.199C666.023 760.375 663.952 759.195 661.674 758.934C661.673 758.934 661.673 758.934 661.672 758.934C660.572 758.807 659.6 758.16 659.058 757.195C658.97 757.037 658.879 756.874 658.788 756.712C658.139 755.555 656.762 755.02 655.502 755.437C654.13 755.891 652.278 756.503 650.472 757.102C646.42 758.442 642.028 758.324 638.054 756.767C638.054 756.767 638.054 756.767 638.054 756.766C637.783 756.66 637.511 756.56 637.236 756.466C636.507 756.216 634.905 755.666 633.2 755.08C629.733 753.89 625.895 755.09 623.72 758.042C623.72 758.042 623.72 758.043 623.719 758.043C622.626 759.528 620.584 759.939 619.003 758.99C618.224 758.524 617.394 758.025 616.671 757.592C615.404 756.833 613.875 756.644 612.463 757.073C612.179 757.159 611.884 757.248 611.59 757.337C610.891 757.549 610.34 758.086 610.113 758.778C609.883 759.471 610.006 760.23 610.439 760.816C610.733 761.214 611.036 761.62 611.322 762.008C611.682 762.492 611.776 763.123 611.577 763.691C611.378 764.259 610.91 764.692 610.326 764.846C610.326 764.846 610.326 764.846 610.325 764.846C608.614 765.297 607.148 766.401 606.24 767.92C605.914 768.468 605.561 769.058 605.218 769.633C603.995 771.681 602.023 773.176 599.719 773.801C599.719 773.801 599.719 773.801 599.718 773.801C598.79 774.054 597.81 773.648 597.331 772.817C597.019 772.275 596.673 771.678 596.406 771.214C596.142 770.756 595.588 770.551 595.09 770.725C594.954 770.773 594.812 770.823 594.671 770.871C594.35 770.984 593.996 770.955 593.697 770.791C593.399 770.627 593.185 770.344 593.107 770.012C593.043 769.737 592.977 769.447 592.911 769.167C592.841 768.863 592.621 768.615 592.327 768.508C592.034 768.401 591.705 768.448 591.455 768.636C591.453 768.637 591.453 768.637 591.453 768.637C590.718 769.188 589.751 769.326 588.89 769.004C588.569 768.883 588.235 768.758 587.935 768.645C587.686 768.552 587.491 768.354 587.399 768.104C587.309 767.854 587.331 767.578 587.461 767.346C587.527 767.23 587.592 767.115 587.653 767.007C587.735 766.861 587.75 766.686 587.693 766.528C587.638 766.369 587.514 766.243 587.359 766.182C586.807 765.967 585.981 765.643 585.254 765.359C584.287 764.981 583.554 764.17 583.278 763.169C583.278 763.169 583.278 763.167 583.276 763.167C582.611 760.762 580.148 759.326 577.728 759.933C577.102 760.09 576.491 760.243 575.96 760.376C574.892 760.643 573.762 760.385 572.916 759.681C572.764 759.553 572.611 759.425 572.467 759.306C572.246 759.121 571.957 759.04 571.672 759.083C571.388 759.126 571.134 759.289 570.977 759.529C570.977 759.531 570.977 759.531 570.975 759.532C569.345 762.036 566.042 762.83 563.451 761.341C562.716 760.919 561.989 760.501 561.349 760.133C559.952 759.331 558.387 758.861 556.778 758.764C556.778 758.764 556.778 758.764 556.776 758.764C556.529 758.749 556.289 758.839 556.112 759.013C555.936 759.186 555.842 759.426 555.854 759.674C555.87 760.021 555.888 760.403 555.903 760.716C555.907 760.816 555.849 760.908 555.757 760.947C555.664 760.986 555.558 760.962 555.49 760.889C555.436 760.829 555.381 760.768 555.324 760.707C555.156 760.523 554.921 760.417 554.673 760.408C554.424 760.401 554.182 760.496 554.003 760.668C553.835 760.83 553.653 761.008 553.474 761.18C553.235 761.412 552.906 761.527 552.573 761.497C552.241 761.466 551.94 761.293 551.745 761.021C551.677 760.923 551.608 760.826 551.54 760.732C551.179 760.222 550.557 759.965 549.94 760.069C549.554 760.135 549.114 760.208 548.73 760.274C548.133 760.374 547.656 760.828 547.526 761.419C547.349 762.223 547.088 763.412 546.836 764.568C546.389 766.601 544.464 767.958 542.399 767.694C542.399 767.693 542.398 767.693 542.397 767.693C539.74 767.353 537.094 768.393 535.379 770.449C534.619 771.361 533.879 772.249 533.427 772.792C533.318 772.921 533.157 772.994 532.988 772.99C532.82 772.987 532.661 772.907 532.559 772.772C532.514 772.714 532.469 772.654 532.424 772.595C532.317 772.456 532.141 772.386 531.969 772.417C531.795 772.449 531.653 772.574 531.602 772.742C531.305 773.707 530.79 775.384 530.197 777.314C529.298 780.236 527.102 782.58 524.244 783.664C521.385 784.75 518.187 784.455 515.576 782.865C515.574 782.865 515.574 782.863 515.573 782.863C514.988 782.506 514.294 782.372 513.618 782.481C513.219 782.547 512.76 782.622 512.344 782.69C511.554 782.819 510.864 783.294 510.46 783.984C510.43 784.034 510.401 784.085 510.37 784.137C509.262 786.029 507.201 787.157 505.01 787.066C504.648 787.051 504.285 787.037 503.938 787.022C502.425 786.961 501.092 786.008 500.542 784.598L500.541 784.596C499.98 783.156 500.26 781.523 501.271 780.354C501.899 779.628 502.601 778.814 503.18 778.143C503.881 777.332 503.902 776.135 503.232 775.3C503.23 775.298 503.23 775.298 503.229 775.297C502.469 774.352 502.04 773.183 502.007 771.971C501.944 769.719 501.839 765.889 501.763 763.106C501.743 762.361 501.345 761.676 500.707 761.289C500.07 760.901 499.278 760.865 498.608 761.19L498.606 761.191C496.618 762.156 494.32 762.256 492.255 761.469C492.011 761.376 491.764 761.283 491.518 761.189C489.498 760.418 488.28 758.35 488.587 756.209C488.635 755.873 488.683 755.545 488.727 755.238C488.788 754.809 488.653 754.375 488.358 754.057C488.063 753.739 487.641 753.571 487.209 753.599C486.993 753.612 486.768 753.628 486.544 753.643C485.107 753.736 483.793 752.829 483.374 751.452C482.634 749.02 481.466 745.191 480.597 742.34C479.867 739.94 478.189 737.941 475.954 736.801H475.952C475.372 736.505 474.95 735.969 474.797 735.336C474.755 735.165 474.712 734.986 474.669 734.807C474.59 734.475 474.351 734.204 474.032 734.083C473.713 733.962 473.354 734.008 473.075 734.204C471.672 735.186 469.378 736.792 467.799 737.899C466.685 738.678 465.904 739.847 465.609 741.175C465.552 741.427 465.497 741.68 465.444 741.918C465.27 742.699 464.603 743.273 463.804 743.327H463.803C459.569 743.615 455.946 746.475 454.686 750.527C454.626 750.723 454.566 750.914 454.508 751.1C453.952 752.885 452.853 754.451 451.363 755.58C450.799 756.006 450.519 756.712 450.634 757.409C450.656 757.546 450.68 757.689 450.703 757.831C450.846 758.696 450.274 759.515 449.413 759.679C448.769 759.803 448.004 759.947 447.286 760.085C445.693 760.389 444.044 760.187 442.569 759.511C441.496 759.02 440.235 759.193 439.334 759.957C439.177 760.09 439.017 760.226 438.86 760.358C437.984 761.103 436.876 761.516 435.728 761.53C435.727 761.53 435.725 761.53 435.725 761.53C434.092 761.55 432.737 760.272 432.659 758.642C432.651 758.457 432.643 758.268 432.633 758.074C432.337 751.821 427.895 746.539 421.786 745.175C421.784 745.175 421.784 745.175 421.783 745.175C421.508 745.114 421.276 744.927 421.159 744.67C421.041 744.413 421.051 744.116 421.186 743.866C421.302 743.648 421.43 743.412 421.557 743.176C422.151 742.072 422.302 740.783 421.983 739.572C421.277 736.909 419.976 731.995 419.078 728.6C418.507 726.447 416.543 724.962 414.317 725C414.315 725 414.314 725 414.314 725C413.209 725.02 412.162 724.506 411.499 723.62C411.234 723.266 410.951 722.887 410.693 722.541C410.087 721.73 409.247 721.125 408.286 720.807C404.757 719.636 401.981 716.877 400.791 713.354C400.268 711.803 399.714 710.161 399.24 708.758C398.476 706.497 398.803 704.01 400.126 702.025V702.023C400.592 701.323 400.427 700.379 399.75 699.879C399.455 699.664 399.141 699.432 398.847 699.216C398.092 698.657 397.689 697.739 397.789 696.806C397.824 696.487 397.861 696.141 397.899 695.79C397.967 695.158 397.711 694.533 397.217 694.131C396.724 693.729 396.06 693.604 395.455 693.799C395.08 693.92 394.694 694.043 394.312 694.167C392.34 694.8 390.178 694.343 388.632 692.963C386.988 691.496 384.963 690.523 382.791 690.154C381.504 689.934 380.112 689.698 379.152 689.534C378.969 689.504 378.786 689.59 378.693 689.752C378.601 689.913 378.62 690.116 378.741 690.258C378.822 690.354 378.904 690.451 378.983 690.542C379.29 690.903 379.255 691.444 378.902 691.763C378.886 691.78 378.867 691.795 378.849 691.812C378.334 692.278 377.634 692.484 376.949 692.367C376.264 692.25 375.67 691.827 375.338 691.217C375.288 691.127 375.238 691.035 375.188 690.944C373.915 688.605 371.654 686.965 369.037 686.478C369.035 686.478 369.035 686.478 369.034 686.478C368.331 686.347 367.779 685.802 367.64 685.1C367.604 684.92 367.566 684.731 367.529 684.542C367.447 684.13 367.18 683.777 366.805 683.586C366.43 683.395 365.989 683.387 365.607 683.563C365.199 683.754 364.757 683.958 364.345 684.148C363.317 684.624 362.129 684.608 361.114 684.105C361.112 684.105 361.112 684.105 361.112 684.104C360.076 683.591 359.284 682.693 358.902 681.603C358.782 681.258 358.65 680.882 358.516 680.499C357.687 678.127 356.066 676.114 353.928 674.796C353.927 674.796 353.927 674.794 353.925 674.794C353.163 674.325 352.166 674.528 351.648 675.26C351.356 675.669 351.04 676.116 350.766 676.505C350.616 676.715 350.593 676.988 350.7 677.222C350.808 677.455 351.034 677.612 351.29 677.634C351.436 677.647 351.587 677.66 351.737 677.673C352.699 677.756 353.442 678.552 353.459 679.517C353.461 679.688 353.464 679.861 353.467 680.034C353.474 680.433 353.27 680.807 352.931 681.018C352.592 681.229 352.167 681.247 351.812 681.065C351.812 681.065 351.812 681.065 351.811 681.065C350.711 680.5 349.404 680.507 348.309 681.082C346.794 681.878 344.544 683.058 342.592 684.083C340.309 685.281 337.493 684.595 336.017 682.483C336.017 682.483 336.017 682.483 336.017 682.482C335.416 681.621 334.536 680.994 333.525 680.707C333.319 680.647 333.104 680.586 332.889 680.525C331.503 680.131 330.366 679.135 329.79 677.813C328.989 675.972 327.817 673.279 326.946 671.283C326.227 669.629 324.683 668.48 322.891 668.265C322.615 668.232 322.337 668.198 322.071 668.167C320.742 668.008 319.535 667.32 318.722 666.257C318.722 666.256 318.72 666.254 318.72 666.253C317.857 665.126 317.557 663.665 317.908 662.289C318.258 660.913 319.219 659.773 320.516 659.193C322.939 658.115 325.639 656.912 327.37 656.14C328.49 655.641 329.275 654.599 329.443 653.382C329.459 653.259 329.476 653.135 329.494 653.013C329.63 652.024 329.245 651.034 328.475 650.398L328.473 650.397C327.213 649.355 326.781 647.614 327.406 646.103C327.461 645.969 327.518 645.834 327.574 645.699C328.237 644.099 327.857 642.255 326.614 641.049C326.554 640.99 326.496 640.935 326.439 640.879C325.989 640.442 325.449 640.107 324.858 639.898C324.611 639.811 324.341 639.717 324.093 639.628C323.882 639.553 323.647 639.588 323.465 639.72C323.283 639.852 323.178 640.064 323.183 640.289C323.193 640.747 323.207 641.293 323.216 641.765C323.233 642.455 322.91 643.111 322.35 643.516C322.229 643.605 322.097 643.7 321.96 643.801C318.731 646.148 314.738 647.192 310.775 646.725C310.406 646.682 310.045 646.639 309.702 646.599C307.891 646.386 306.064 646.817 304.538 647.814C303.163 648.712 301.358 648.572 300.139 647.472C299.761 647.132 299.377 646.784 299.025 646.467C298.231 645.751 297.03 645.734 296.218 646.428C296.218 646.428 296.218 646.428 296.216 646.429C295.954 646.654 295.583 646.707 295.268 646.566C294.951 646.424 294.745 646.113 294.738 645.766C294.714 644.673 294.683 643.277 294.658 642.057C294.643 641.357 294.318 640.7 293.771 640.264C293.225 639.828 292.513 639.657 291.827 639.798H291.826C290.025 640.167 288.155 639.688 286.754 638.499C285.52 637.454 284.039 636.198 283.05 635.36C282.357 634.772 281.989 633.889 282.06 632.984V632.982C282.087 632.638 281.958 632.301 281.709 632.062C281.459 631.824 281.116 631.71 280.773 631.753C280.275 631.816 279.7 631.887 279.155 631.955C277.843 632.119 276.535 631.628 275.656 630.641C275.655 630.641 275.655 630.64 275.655 630.64C274.733 629.604 273.478 628.922 272.106 628.711C270.395 628.449 267.958 628.075 265.999 627.774C263.859 627.445 261.828 626.614 260.071 625.351C260.071 625.351 260.07 625.351 260.07 625.349C258.568 624.269 256.483 624.54 255.309 625.97C255.03 626.31 254.748 626.652 254.484 626.974C254.126 627.41 253.977 627.982 254.081 628.537C254.184 629.094 254.527 629.575 255.019 629.854C255.069 629.882 255.117 629.909 255.167 629.937C256.558 630.725 257.605 632.003 258.102 633.524C258.602 635.049 259.251 637.027 259.752 638.559C260.248 640.07 261.407 641.271 262.9 641.818H262.901C264.377 642.36 265.474 643.618 265.809 645.155C266.202 646.963 266.723 649.354 267.052 650.868C267.243 651.749 266.885 652.66 266.144 653.175C265.832 653.391 265.445 653.461 265.079 653.37C264.712 653.277 264.404 653.03 264.233 652.692C264.087 652.402 263.93 652.094 263.78 651.796C263.623 651.487 263.312 651.287 262.967 651.272C262.621 651.258 262.293 651.431 262.111 651.727C261.541 652.656 260.52 653.213 259.43 653.191C259.07 653.184 258.691 653.175 258.327 653.168C257.192 653.145 256.152 653.802 255.685 654.839H255.684C255.33 655.626 254.449 656.032 253.62 655.79C253.354 655.711 253.082 655.632 252.834 655.56C252.272 655.394 251.669 655.621 251.353 656.114C250.779 657.008 249.831 658.488 248.937 659.882C247.443 662.214 245.558 664.269 243.365 665.959C243.141 666.131 242.915 666.306 242.688 666.481C240.324 668.303 237.073 668.451 234.55 666.854C234.359 666.732 234.166 666.61 233.973 666.488C231.145 664.698 229.181 661.822 228.538 658.538C228.538 658.537 228.538 658.537 228.538 658.537C227.875 655.157 226.418 651.982 224.285 649.279C222.363 646.845 220.025 643.883 218.557 642.022C217.634 640.853 216.341 640.031 214.89 639.693H214.889C213.514 639.373 212.422 638.33 212.042 636.97C211.949 636.638 211.85 636.29 211.752 635.94C211.17 633.864 209.37 632.359 207.224 632.153C207.153 632.146 207.082 632.139 207.016 632.134C206.377 632.071 205.745 632.296 205.287 632.745C205.034 632.993 204.751 633.27 204.505 633.511C204.343 633.671 204.119 633.754 203.891 633.742C203.664 633.729 203.451 633.623 203.307 633.446C203.307 633.445 203.305 633.445 203.305 633.445C199.606 628.932 199.926 622.35 204.047 618.219C204.476 617.788 204.874 617.387 205.226 617.036C206.125 616.133 207.409 615.721 208.668 615.932C208.839 615.961 209.011 615.99 209.179 616.018C210.14 616.179 211.119 615.854 211.792 615.147C213.285 613.581 214.175 611.537 214.303 609.376C214.307 609.307 214.311 609.237 214.315 609.168C214.38 608.049 215.088 607.068 216.13 606.652C216.131 606.652 216.131 606.652 216.133 606.652C216.526 606.494 216.823 606.162 216.934 605.752C217.045 605.344 216.957 604.906 216.698 604.572C215.949 603.609 214.905 602.267 213.831 600.885C210.838 597.036 206.452 594.517 201.62 593.874C201.618 593.874 201.617 593.874 201.616 593.874C200.681 593.749 199.797 594.335 199.548 595.246C199.327 596.055 199.066 597.011 198.88 597.693C198.727 598.251 198.307 598.697 197.758 598.883C197.444 598.988 197.093 599.108 196.785 599.212C196.271 599.387 195.705 599.313 195.252 599.015L195.25 599.013C191.625 596.619 186.767 597.432 184.116 600.872C183.88 601.181 183.653 601.472 183.447 601.742C182.743 602.655 181.464 602.893 180.478 602.292C180.147 602.089 179.938 601.736 179.92 601.349C179.902 600.961 180.078 600.589 180.389 600.357C180.613 600.192 180.839 600.023 181.049 599.867C181.605 599.453 181.822 598.722 181.58 598.072C181.226 597.118 180.699 595.699 180.242 594.467C179.693 592.989 178.205 592.08 176.64 592.266C176.193 592.32 175.712 592.377 175.215 592.437C171.214 592.914 167.41 590.569 166.043 586.778C166.043 586.777 166.043 586.775 166.043 586.775C165.164 584.341 162.576 582.979 160.072 583.634C159.997 583.654 159.922 583.673 159.847 583.693C156.88 584.469 153.724 584.004 151.106 582.403C150.504 582.033 149.894 581.661 149.329 581.316C147.556 580.23 145.527 579.633 143.448 579.581C143.371 579.58 143.293 579.577 143.217 579.576C140.984 579.521 138.8 578.923 136.85 577.833C136.432 577.598 136.003 577.358 135.584 577.123C133.751 576.099 131.485 576.247 129.802 577.504C129.602 577.654 129.401 577.804 129.205 577.95C128.78 578.268 128.216 578.329 127.734 578.108C127.251 577.888 126.928 577.423 126.887 576.894C126.83 576.121 126.767 575.272 126.708 574.491C126.575 572.705 125.784 571.033 124.485 569.8V569.799C120.906 566.396 118.838 561.703 118.74 556.767C118.724 555.949 118.709 555.179 118.696 554.525C118.67 553.244 118.104 552.033 117.136 551.193C117.136 551.193 117.136 551.193 117.134 551.191C116.189 550.371 114.888 550.09 113.687 550.447C113.191 550.594 112.654 550.755 112.144 550.907C111.611 551.065 111.033 550.969 110.579 550.646C110.126 550.322 109.847 549.808 109.822 549.251C109.817 549.097 109.81 548.943 109.803 548.793C109.792 548.513 109.608 548.268 109.342 548.178C109.077 548.088 108.782 548.17 108.602 548.386C108.445 548.572 108.281 548.768 108.116 548.965C107.138 550.135 105.414 550.326 104.202 549.403C104.2 549.401 104.199 549.401 104.199 549.4C101.917 547.663 98.9723 547.053 96.1897 547.743C95.787 547.843 95.4135 547.935 95.0983 548.014C94.4943 548.163 93.9847 548.566 93.6973 549.117C93.5362 549.425 93.3557 549.775 93.1918 550.087C92.9211 550.607 93.0808 551.248 93.5654 551.58C94.118 551.962 94.8609 552.473 95.5357 552.937C96.5313 553.621 96.8867 554.924 96.3785 556.019C96.1231 556.571 95.8412 557.179 95.576 557.752C94.8803 559.254 94.6304 560.924 94.8581 562.563C94.9733 563.4 95.1025 564.329 95.2177 565.158C95.2997 565.755 95.1149 566.358 94.7109 566.805C94.3068 567.252 93.7251 567.498 93.1238 567.475C93.1224 567.475 93.121 567.475 93.1196 567.475C90.3328 567.373 87.7877 565.866 86.3561 563.472C84.9245 561.079 84.8023 558.123 86.0298 555.62C87.0504 553.539 88.0848 551.43 89.0138 549.539C91.2174 545.044 92.9294 540.326 94.1194 535.463C95.376 530.325 96.995 523.707 97.9392 519.852C98.4544 517.744 98.646 515.571 98.5085 513.405C98.4836 513.023 98.4599 512.641 98.4363 512.281C98.3461 510.873 97.9559 509.503 97.2922 508.259C96.634 507.03 95.7592 505.391 94.9831 503.94C93.7792 501.689 92.9919 499.24 92.6586 496.71C91.7991 490.179 87.5961 484.568 81.5712 481.907C78.9386 480.745 76.3392 479.597 74.6021 478.83C73.2594 478.237 72.2167 477.124 71.714 475.745C71.7029 475.714 71.6918 475.685 71.6807 475.654C71.2225 474.396 71.4252 472.993 72.2236 471.916C72.5638 471.455 72.9429 470.946 73.3164 470.44C74.7063 468.566 75.3589 466.247 75.152 463.922C74.9451 461.588 74.0287 459.373 72.5263 457.575C72.3499 457.365 72.1694 457.149 71.9862 456.929C68.9425 453.287 66.8527 448.946 65.9044 444.296C65.8641 444.099 65.8252 443.91 65.7877 443.728C65.542 442.521 64.863 441.447 63.8771 440.705C63.362 440.318 62.7871 439.884 62.272 439.497C61.3666 438.816 61.0028 437.631 61.3694 436.559C61.5305 436.089 61.7013 435.587 61.8568 435.135C62.1901 434.16 62.7718 433.29 63.5439 432.608C63.7383 432.437 63.9493 432.251 64.1729 432.054C67.622 429.012 69.827 424.804 70.3657 420.237C70.4532 419.501 70.5393 418.768 70.6212 418.069C70.9836 414.994 71.8112 411.993 73.0761 409.167C73.1608 408.976 73.2469 408.787 73.3316 408.598C74.3189 406.39 73.9009 403.804 72.2666 402.021C72.2653 402.021 72.2652 402.02 72.2652 402.02C69.8284 399.361 68.7467 395.73 69.3299 392.171C69.6104 390.47 69.9159 388.602 70.1963 386.9C70.749 383.525 69.048 380.182 65.9932 378.644C65.9932 378.644 65.9918 378.644 65.9905 378.643C62.7038 376.988 60.2475 374.045 59.2089 370.514C58.3563 367.62 57.3538 364.214 56.679 361.922C56.1735 360.205 56.1263 358.388 56.5401 356.646C56.5401 356.646 56.5401 356.646 56.5401 356.645C56.9553 354.897 57.7814 353.272 58.952 351.907C60.035 350.642 61.4194 349.026 62.5316 347.727C63.7105 346.351 63.9563 344.404 63.1565 342.777C63.1551 342.777 63.1551 342.777 63.1551 342.776C62.3192 341.079 62.3581 339.082 63.2564 337.418C63.3245 337.292 63.3925 337.166 63.4606 337.039C64.2312 335.615 64.1534 333.88 63.2606 332.529C62.4386 331.285 61.5735 329.976 61.5735 329.976C61.5735 329.976 61.5735 329.978 61.5735 329.981C61.5735 329.982 61.5721 329.984 61.5708 329.985C61.5694 329.987 61.568 329.985 61.5666 329.985C61.4555 329.912 59.9462 328.912 58.0522 327.659C52.7258 324.137 48.0228 319.753 44.1335 314.687C41.6981 311.513 38.9016 308.634 35.7996 306.108C35.147 305.577 34.4763 305.031 33.8237 304.5C30.7467 301.994 27.2892 299.997 23.5819 298.585C22.9348 298.338 22.4224 297.83 22.1697 297.185C21.917 296.54 21.9475 295.819 22.2544 295.198C22.5543 294.591 22.8751 293.944 23.1694 293.349C23.8832 291.906 24.1539 290.285 23.947 288.69C23.947 288.69 23.947 288.69 23.947 288.688C23.2847 283.558 25.4244 278.464 29.5539 275.347C30.244 274.826 30.9508 274.293 31.6548 273.761C36.952 269.762 40.8108 264.153 42.6534 257.776V257.774C43.163 256.009 43.3254 254.164 43.1324 252.336C43.0852 251.902 43.0366 251.444 42.988 250.985C42.7061 248.316 43.3671 245.632 44.8584 243.401C45.4068 242.579 45.9886 241.708 46.5232 240.908C47.7646 239.05 47.8992 236.666 46.8745 234.68C45.7748 232.552 45.0055 230.269 44.589 227.91C43.7448 223.119 42.2451 214.611 41.3509 209.536C40.8677 206.789 39.9555 204.136 38.6488 201.671C37.37 199.257 36.8021 196.53 37.0118 193.806C37.1298 192.256 37.2589 190.576 37.3547 189.339C37.4436 188.175 36.9812 187.039 36.1064 186.268C36.1064 186.268 36.105 186.268 36.105 186.267C35.2081 185.478 34.611 184.405 34.411 183.227C34.1472 181.662 33.7668 179.414 33.5015 177.844C33.328 176.809 33.982 175.816 35.0012 175.568C35.0026 175.568 35.0039 175.568 35.0053 175.567C35.4621 175.455 35.8523 175.157 36.0773 174.744C36.3036 174.332 36.3439 173.843 36.1911 173.399C35.9773 172.777 35.7357 172.074 35.5163 171.438C35.3913 171.074 35.483 170.67 35.751 170.395C36.0203 170.119 36.4216 170.019 36.7882 170.136C36.7896 170.136 36.7896 170.136 36.7896 170.136C38.1031 170.551 39.2667 171.34 40.1415 172.405C40.8566 173.275 41.7619 174.378 42.6117 175.412C44.3155 177.487 46.6773 178.917 49.3058 179.466C51.9274 180.013 54.2685 181.475 55.9097 183.591C56.3235 184.124 56.7609 184.688 57.201 185.255C57.9495 186.22 59.1908 186.664 60.3822 186.393C61.5735 186.121 62.5011 185.184 62.7579 183.99C62.8135 183.729 62.8663 183.484 62.9135 183.262C62.9815 182.95 62.9079 182.623 62.7121 182.369C62.5177 182.117 62.2206 181.961 61.9012 181.946C61.4319 181.924 60.9001 181.899 60.4238 181.876C59.6004 181.837 58.8756 181.324 58.5646 180.56C57.1386 177.058 56.8983 173.184 57.8828 169.533C57.9703 169.207 58.055 168.893 58.1341 168.597C58.4702 167.352 59.5032 166.418 60.7765 166.212C61.0306 166.17 61.2847 166.128 61.5236 166.089C62.2775 165.967 62.8052 165.278 62.7288 164.519C62.6871 164.095 62.6371 163.601 62.5844 163.078C62.2567 159.817 62.6691 156.523 63.7882 153.442C65.1754 149.625 67.3471 146.141 70.1644 143.216C70.5601 142.804 70.9239 142.426 71.2225 142.117C71.6765 141.646 72.4097 141.583 72.9373 141.971C73.1275 142.11 73.3316 142.261 73.5358 142.411C73.8274 142.625 74.212 142.662 74.5397 142.508C74.8674 142.354 75.084 142.033 75.1034 141.672C75.1728 140.461 75.2603 138.915 75.3172 137.913C75.3519 137.302 75.7713 136.78 76.36 136.614C76.4683 136.583 76.5766 136.553 76.6794 136.523C76.8349 136.48 76.9613 136.365 77.0168 136.212C77.0738 136.061 77.0543 135.892 76.9654 135.757C76.7197 135.385 76.3948 134.893 76.1129 134.466C75.7324 133.891 75.7338 133.145 76.1129 132.57C76.4878 132.002 76.9807 131.256 77.4473 130.552C77.6944 130.178 77.6972 129.692 77.4528 129.314C77.2084 128.936 76.7641 128.739 76.3198 128.813C76.3184 128.813 76.317 128.813 76.3156 128.813C76.1129 128.846 75.9171 128.719 75.8643 128.521C75.8116 128.321 75.9185 128.115 76.1115 128.043C84.3802 124.962 103.913 117.684 114.041 113.912C118.255 112.341 122.614 111.183 127.051 110.455C128.559 110.208 130.153 109.947 131.639 109.704C135.759 109.029 139.81 107.984 143.743 106.58C149.566 104.502 158.306 101.384 163.374 99.5756C166.061 98.6161 168.803 97.8246 171.587 97.2026C172.674 96.9609 173.905 96.686 175.193 96.3985C183.912 94.4531 192.072 90.5442 199.052 84.969C201.398 83.0972 203.532 80.9782 205.423 78.6481C207.521 76.0612 210.523 72.3606 213.533 68.6488C220.758 59.7438 230.653 53.3979 241.759 50.5499C241.762 50.5485 241.764 50.5499 241.765 50.5527C241.765 50.5541 241.766 50.5555 241.766 50.5583V50.5583ZM72.3722 131.054C72.5416 130.993 72.7276 131.07 72.804 131.231C72.8818 131.394 72.8234 131.587 72.6707 131.68C72.5013 131.781 72.3319 131.884 72.1639 131.985C70.5226 132.978 69.5284 134.763 69.5479 136.68C69.5507 137.023 69.5548 137.377 69.559 137.73C69.5854 140.316 68.6842 142.826 67.0208 144.806C67.0208 144.806 67.0207 144.806 67.0194 144.806C65.2962 146.857 64.0215 149.246 63.2745 151.819C62.7357 153.678 62.097 155.885 61.5722 157.694C61.4472 158.123 61.0501 158.415 60.6043 158.406C60.1572 158.397 59.7726 158.088 59.6657 157.655C59.6657 157.655 59.6657 157.654 59.6643 157.654C59.1214 155.449 57.3079 153.784 55.0641 153.432C53.9255 153.253 52.6578 153.055 51.4636 152.867C48.8837 152.463 47.1036 150.064 47.466 147.477C47.466 147.475 47.466 147.474 47.466 147.472C47.473 147.425 47.4424 147.379 47.3952 147.368C47.3494 147.356 47.3008 147.382 47.2841 147.427C47.1883 147.692 47.0814 147.986 46.9828 148.257C46.7954 148.771 46.233 149.044 45.7137 148.874C45.7123 148.872 45.7123 148.872 45.7109 148.872C44.0836 148.336 42.3035 148.538 40.8372 149.425C39.239 150.39 37.202 151.623 36.0592 152.313C35.9676 152.369 35.8496 152.353 35.776 152.276C35.7024 152.198 35.6927 152.08 35.7524 151.992C35.7537 151.99 35.7537 151.988 35.7551 151.987C36.0773 151.508 35.9995 150.865 35.5718 150.476C35.122 150.066 34.5291 149.528 33.975 149.025C33.0461 148.181 32.8725 146.782 33.5696 145.737C33.7195 145.51 33.8695 145.285 34.0111 145.073C34.4749 144.376 35.2761 143.977 36.1134 144.03C37.2659 144.102 38.9793 144.209 40.5414 144.306C42.9741 144.459 45.3791 143.726 47.3133 142.243C47.3133 142.243 47.3133 142.243 47.3147 142.243C50.9568 139.452 55.0127 137.245 59.3366 135.703C63.6008 134.182 68.9897 132.26 72.3722 131.054V131.054ZM37.1187 156.782C37.495 157.323 37.8518 157.879 38.1864 158.447C38.1864 158.448 38.1878 158.449 38.1878 158.449C38.2837 158.612 38.2503 158.82 38.1073 158.945C37.9643 159.069 37.7532 159.073 37.606 158.955C36.0092 157.676 33.564 155.719 31.6395 154.178C29.783 152.692 28.7292 150.423 28.7916 148.046C28.7916 148.045 28.7916 148.045 28.7916 148.043C28.8083 147.399 28.507 146.788 27.9863 146.407C27.8516 146.309 27.71 146.205 27.5683 146.102C27.3434 145.938 27.2337 145.659 27.2851 145.385C27.3364 145.113 27.5406 144.894 27.8099 144.823C28.6569 144.599 29.7122 144.32 30.519 144.107C31.3465 143.889 32.1894 143.739 33.0419 143.658C33.1822 143.645 33.3224 143.632 33.4557 143.619C33.5973 143.607 33.7334 143.679 33.8015 143.802C33.8695 143.927 33.857 144.08 33.7695 144.193L33.7681 144.194C32.3977 145.955 32.2421 148.374 33.3766 150.294C34.0222 151.39 34.6471 152.449 34.904 152.884C34.9289 152.927 34.9303 152.98 34.9054 153.023C34.8817 153.066 34.8359 153.094 34.7859 153.094C34.7859 153.094 34.7846 153.094 34.7832 153.094C34.7387 153.094 34.6971 153.12 34.6762 153.16C34.6554 153.2 34.6582 153.249 34.6846 153.285C35.0956 153.875 36.3689 155.707 37.1187 156.782V156.782ZM37.2936 153.11C37.3186 153.113 37.3408 153.128 37.3506 153.152C37.3603 153.174 37.3561 153.2 37.3422 153.221C37.3158 153.256 37.2867 153.293 37.2617 153.327C37.2506 153.341 37.2492 153.36 37.2561 153.377C37.2645 153.392 37.2811 153.402 37.2992 153.402C37.5588 153.405 38.3142 153.41 38.9529 153.414C39.6236 153.418 40.2929 153.46 40.9594 153.538C40.9608 153.538 40.9621 153.539 40.9621 153.539C41.3843 153.588 41.7328 153.891 41.8383 154.302C41.9452 154.713 41.7897 155.147 41.4453 155.396C41.3273 155.481 41.2093 155.565 41.0941 155.649C40.0651 156.39 39.4611 157.586 39.4708 158.853C39.4708 158.855 39.4708 158.856 39.4708 158.858C39.4722 159.037 39.357 159.196 39.1862 159.251C39.0154 159.305 38.8293 159.241 38.728 159.095C38.5641 158.86 38.3947 158.616 38.2406 158.395C37.8699 157.862 37.5186 157.313 37.1881 156.754C36.834 156.154 36.348 155.331 35.9259 154.615C35.7399 154.3 35.7357 153.91 35.9162 153.592C36.0953 153.273 36.4314 153.074 36.7965 153.07H36.7979C36.8937 153.069 36.9881 153.074 37.0826 153.085C37.1506 153.094 37.2298 153.102 37.2936 153.11V153.11ZM44.5834 153.677C44.6904 153.509 44.8834 153.414 45.0819 153.431C45.2805 153.448 45.454 153.574 45.5332 153.757C45.5707 153.846 45.6082 153.935 45.6443 154.021C45.8012 154.389 45.6387 154.814 45.2777 154.985C45.2763 154.986 45.2749 154.986 45.2735 154.988C44.9917 155.121 44.657 155.051 44.4515 154.818C44.246 154.585 44.221 154.243 44.3876 153.981C44.4557 153.877 44.521 153.775 44.5834 153.677ZM38.4697 153.248C38.2531 153.221 38.0657 153.082 37.981 152.882C37.8949 152.681 37.9226 152.451 38.0545 152.277C38.0545 152.276 38.0559 152.276 38.0559 152.274C38.2253 152.051 38.478 151.906 38.7558 151.876C39.0335 151.844 39.3126 151.928 39.5264 152.109C39.9138 152.435 40.3595 152.81 40.6747 153.078C40.7386 153.131 40.7622 153.218 40.733 153.296C40.7039 153.375 40.6303 153.427 40.547 153.425C40.547 153.425 40.547 153.425 40.5456 153.425C40.1554 153.423 39.7652 153.399 39.3778 153.353C39.1084 153.321 38.7794 153.284 38.4697 153.248ZM40.8163 150.19C41.001 150.084 41.2287 150.087 41.4106 150.197C41.5925 150.308 41.7008 150.508 41.6925 150.72C41.6911 150.784 41.6883 150.848 41.6856 150.913C41.6745 151.23 41.4634 151.504 41.1593 151.594C40.8566 151.685 40.5303 151.573 40.3456 151.316C40.3442 151.313 40.3429 151.311 40.3401 151.308C40.2304 151.154 40.1915 150.962 40.2318 150.777C40.272 150.594 40.3887 150.436 40.5511 150.341C40.6372 150.293 40.7261 150.241 40.8163 150.19V150.19ZM74.13 137.27C74.5147 137.444 74.7577 137.833 74.7452 138.255C74.7424 138.381 74.7382 138.515 74.7355 138.648C74.7202 139.191 74.3036 139.639 73.7621 139.694C73.3525 139.734 72.8554 139.784 72.3638 139.832C71.8515 139.884 71.3433 139.696 70.9864 139.324C70.6296 138.952 70.4629 138.437 70.5337 137.927C70.5351 137.926 70.5351 137.924 70.5351 137.923C70.606 137.418 70.91 136.975 71.3572 136.729C71.8043 136.483 72.3402 136.461 72.8054 136.672C73.2858 136.889 73.7649 137.105 74.13 137.27V137.27Z" fill="white" stroke="#D2D2D2" stroke-width="4" stroke-linejoin="round"/>
</g>
<defs>
<filter id="filter0_d" x="0" y="0" width="892" height="844" filterUnits="userSpaceOnUse" color-interpolation-filters="sRGB">
<feFlood flood-opacity="0" result="BackgroundImageFix"/>
<feColorMatrix in="SourceAlpha" type="matrix" values="0 0 0 0 0 0 0 0 0 0 0 0 0 0 0 0 0 0 127 0"/>
<feOffset dy="10"/>
<feGaussianBlur stdDeviation="10"/>
<feColorMatrix type="matrix" values="0 0 0 0 0 0 0 0 0 0 0 0 0 0 0 0 0 0 0.16 0"/>
<feBlend mode="normal" in2="BackgroundImageFix" result="effect1_dropShadow"/>
<feBlend mode="normal" in="SourceGraphic" in2="effect1_dropShadow" result="shape"/>
</filter>
</defs>
</svg>
